<?xml version="1.0" encoding="utf-8"?>
<!-- Generator: Adobe Illustrator 22.1.0, SVG Export Plug-In . SVG Version: 6.00 Build 0)  -->
<svg version="1.1" id="Layer_1" xmlns="http://www.w3.org/2000/svg" xmlns:xlink="http://www.w3.org/1999/xlink" x="0px" y="0px"
	 viewBox="0 0 2592 1728" style="enable-background:new 0 0 2592 1728;" xml:space="preserve">
<style type="text/css">
	.st0{fill:#FDFDFD;}
	.st1{fill:#030202;}
	.st2{fill:#88561B;}
	.st3{fill:#6C3B0B;}
	.st4{fill:#BED0BA;}
	.st5{fill:#58473A;}
	.st6{fill:#BDD0BA;}
	.st7{fill:#E47D17;}
	.st8{fill:#64554A;}
	.st9{fill:#E57D17;}
	.st10{fill:#58473D;}
	.st11{fill:#E77E18;}
	.st12{fill:#59493E;}
	.st13{fill:#83531A;}
	.st14{fill:#66574C;}
	.st15{fill:#59483D;}
	.st16{fill:#5F5147;}
	.st17{fill:#B8C9B5;}
	.st18{fill:#020100;}
	.st19{fill:#030201;}
	.st20{fill:#D7C5AF;}
	.st21{fill:#F0EDE2;}
	.st22{fill:#9D3427;}
	.st23{fill:#74CA19;}
	.st24{fill:#040302;}
	.st25{fill:#FA5A00;}
	.st26{fill:#FB7700;}
</style>
<g>
	<g>
		<path class="st0" d="M1384,1069.6c-97.6,0-195.2,0-292.8,0c0-136.7,0-273.5,0-410.3c136.7,0,273.4,0,410.2,0
			c0,136.7,0,273.5,0,410.3c-36.7,0-73.5,0-110.3,0c3.5-2.2,7.4-3.9,10.3-6.6c4.8-4.6,5.6-11,5.5-17.4c-0.2-14.4-0.4-28.8-0.6-43.2
			c0-1.4,0.2-3.2,1-4c4.5-4.4,9.2-8.5,13.6-12.6c0,0.1,0.4,0.9,0.6,1.8c5.1,17.2,10.1,34.4,15.3,51.6c1.2,3.9,2.6,7.9,4.9,11.2
			c4.6,6.5,11.2,9.8,19.4,7.9c7.1-1.6,11.6-6.6,12.6-13.4c0.7-5.2,0.2-11-1.4-16c-8.1-25.9-16.6-51.6-25.2-77.3
			c-1.2-3.5-1-6.3,0.5-9.7c15.4-34.6,18.9-70.5,10.7-107.4c-7.9-35.8-25.8-65.9-52.9-90.5c-1.5-1.3-2.9-3.6-3-5.5
			c-0.5-20.5-0.7-41.1-1-61.6c0-2-0.1-4-0.6-5.9c-1.6-6.7-6.8-11.1-12.9-11c-6.1,0.1-11.6,5.1-12.8,11.7c-0.3,1.8-0.3,3.7-0.3,5.6
			c0,16,0,32.1,0,48.1c-0.4,0-0.9,0.1-1.3,0.1c-0.3-0.9-0.7-1.9-1-2.8c-4.8-14.6-9.5-29.3-14.4-43.9c-1-3.1-2.7-6.2-4.9-8.5
			c-3.7-3.8-8.5-5-13.6-2.8c-5,2.1-7.7,6.2-7.8,11.5c-0.1,2.7,0.5,5.6,1.2,8.2c1.7,6.3,3.6,12.6,5.4,18.6
			c-83-17.2-149,6.9-195.9,78.6c-34.7,64.2-32.7,127.2,8.6,187.5c24,35,57.9,57.2,99.3,67.1c41.3,9.9,81,4.6,119.1-14.3
			c0,6.1,0.3,11.7-0.1,17.3C1368.9,1054.3,1372.1,1064.2,1384,1069.6z"/>
		<path class="st1" d="M1384,1069.6c-11.9-5.4-15.1-15.3-14.4-27.5c0.4-5.6,0.1-11.2,0.1-17.3c-38.1,18.9-77.8,24.1-119.1,14.3
			c-41.4-9.9-75.3-32-99.3-67.1c-41.3-60.4-43.2-123.3-8.6-187.5c46.9-71.7,112.9-95.8,195.9-78.6c-1.7-6-3.7-12.2-5.4-18.6
			c-0.7-2.7-1.3-5.5-1.2-8.2c0.2-5.4,2.8-9.4,7.8-11.5c5.1-2.2,9.9-1,13.6,2.8c2.2,2.3,3.9,5.4,4.9,8.5c5,14.6,9.7,29.3,14.4,43.9
			c0.3,1,0.7,1.9,1,2.8c0.4,0,0.9-0.1,1.3-0.1c0-16,0-32.1,0-48.1c0-1.9,0-3.8,0.3-5.6c1.2-6.7,6.6-11.6,12.8-11.7
			c6.1-0.1,11.3,4.3,12.9,11c0.4,1.9,0.5,3.9,0.6,5.9c0.3,20.5,0.5,41.1,1,61.6c0,1.9,1.5,4.1,3,5.5c27.1,24.7,45,54.7,52.9,90.5
			c8.1,36.9,4.7,72.8-10.7,107.4c-1.5,3.4-1.7,6.3-0.5,9.7c8.5,25.7,17.1,51.4,25.2,77.3c1.6,5,2.1,10.8,1.4,16
			c-1,6.8-5.5,11.8-12.6,13.4c-8.2,1.9-14.8-1.4-19.4-7.9c-2.3-3.3-3.8-7.3-4.9-11.2c-5.2-17.2-10.2-34.4-15.3-51.6
			c-0.3-0.9-0.6-1.7-0.6-1.8c-4.4,4.1-9.1,8.2-13.6,12.6c-0.8,0.8-1,2.6-1,4c0.1,14.4,0.4,28.8,0.6,43.2c0.1,6.4-0.7,12.8-5.5,17.4
			c-2.9,2.8-6.8,4.5-10.3,6.6C1388.8,1069.6,1386.4,1069.6,1384,1069.6z M1405.9,970.6c0,3.8,0,7.5,0,11.7
			c10.7-9.1,11.4-10.8,8.1-20.7c0-0.1-0.1-0.2-0.2-0.3c-0.9-3.2-1.8-6.4-2.7-9.6c-0.3-0.1-0.7-0.1-1-0.2c-1.5,2.8-3.6,5.5-4.2,8.5
			C1405.1,963.4,1405.8,967.1,1405.9,970.6z M1344.6,680.4c0.1,1.2,0.2,2.4,0.3,3.6c0,0.4,0,0.8,0.1,1.2
			c7.2,24.6,14.5,49.2,21.7,73.9c2,6.8,4.1,13.5,6.1,20.3c0.2-0.1,0.4-0.1,0.6-0.2c0-3.7,0-7.5,0-11.2c-0.2-2.1-0.1-4.3-0.7-6.2
			c-8.5-26.2-17-52.5-25.7-78.7c-0.5-1.4-1.6-2.6-2.4-3.9C1344.7,679.6,1344.7,680,1344.6,680.4z M1404.3,862.4
			c0.2,2.7,0.3,5.3,0.5,8c0.3,7-0.4,14.3,1.3,21c4,16,9.1,31.6,13.8,47.4c2,6.8,4.1,13.6,6.2,20.7c2.9-1,5.2-1.9,7.6-2.7
			c3-0.1,2.2-1.9,1.6-3.6c-2.7-8.2-5.3-16.4-8-24.6c-7.2-22.1-14.5-44.1-21.7-66.2c-0.3-0.9-0.6-1.8-0.9-2.6c-0.2,0-0.4,0.1-0.5,0.1
			C1404.2,860.8,1404.2,861.6,1404.3,862.4z M1388,1057.4c4.9-1.1,7.1-4.2,7-10.8c-0.1-12.9-0.4-25.8-0.7-38.7c0-2,0-3.9,0-6.2
			c-2.4,0-4.4,0-6.4,0c-1.8,0-3.6,0-6.4,0c0,15.9-0.1,31.3,0.1,46.6C1381.8,1052.4,1383.1,1056.4,1388,1057.4z M1445.5,992.6
			c-1.8,0.5-3.6,1-5.4,1.4c-2.7,0.6-3.7,1.6-2.7,4.7c4.2,13.4,8,26.9,12,40.4c0.5,1.5,0.9,3.3,2,4.3c1.7,1.5,4,3.4,5.9,3.3
			c1.7-0.1,3.3-2.7,5-4.2c0-2.2,0.4-4.6-0.2-6.7c-4.4-13.9-8.9-27.8-13.5-41.6C1448.1,992.6,1447.4,991.1,1445.5,992.6z M1388,964.1
			c1.8,0,3.6,0,5,0c0-13.2,0.1-25.9,0-38.5c-0.2-20.5-0.5-41-0.8-61.5c-0.2-16.5-0.5-33-0.7-49.5c-0.3-27-0.6-54.1-1-81.1
			c-0.2-18.9-0.5-37.8-0.8-56.7c0-1.4-0.5-2.8-0.8-4.1c-0.5,0.1-1.1,0.1-1.6,0.2c0,7,0,13.9,0,20.9c-0.2,1.3-0.6,2.6-0.6,3.8
			c-0.3,18.5-0.6,37-0.8,55.5c-0.3,18.9-0.5,37.8-0.8,56.7c-0.3,18.4-0.5,36.7-0.8,55.1c-0.3,19-0.6,38.1-0.8,57.1
			c-0.1,12.7-0.1,25.3-0.2,38c0,1.3,0,2.6,0,4.2C1385.1,964.1,1386.5,964.1,1388,964.1z M1403.4,771c-0.9,6.6-0.5,12.8,4.5,18.1
			c2.3,2.5,4,5.6,5.8,8.6c10.4,17.3,17.1,35.9,19.5,56.1c1.5,12.2,2.2,24.4-0.2,36.5c-1.7,8.8-1.3,17,3,24.9c1.3,4.4,2.5,8.7,4,14.1
			c26.7-70.3-1.7-139.3-37.3-170.4C1402.9,763.1,1403.1,767,1403.4,771z M1345.7,730.4c-0.4-1.7-1-3.3-1.2-5
			c-0.5-3.7-2.6-5.4-6.1-6.1c-9.4-1.9-18.6-4.5-28.1-5.8c-39.6-5.2-76.2,3.7-108.9,26.2c-40.5,27.8-64.3,66.6-69.4,115.7
			c-5.3,50.3,10.8,93.9,46.2,129.8c25.5,25.8,56.8,40.8,92.9,45.4c31.9,4,62.2-1.7,91.2-15.4c6.3-3,9.4-6.6,8-13.5
			c0-3.1,0-6.2,0-9.2c-9.1,4.5-17.5,9.3-26.5,12.9c-22.6,9.2-46.1,11.8-70.3,9.1c-15.5-1.7-30.2-6.1-44.2-12.8
			c-16.7-8-31.5-18.7-44-32.5c-2.7-2.9-3.8-5.6-2.1-9.2c4.9-3.4,6.6-3.3,11,1.1c2.2,2.2,4.3,4.4,6.5,6.5c8.3,7.9,17.5,14.6,27.5,20
			c1.7-4.8,3.1-9.5,5-14c4.5-10.5,12.6-17.9,22-23.9c2-0.9,4.1-1.8,6-2.6c-10-44.5,29.9-75.5,66.1-64c1.3-2.1,2.4-4.3,3.9-6.3
			c9.3-12.9,21.5-20.8,37.5-22.4c2.9-0.3,4-1.4,4-4.5c-0.2-8.4,0-16.8,0.1-25.2c0-1.3-0.1-2.7-0.4-3.9c-6-20.7-12.1-41.4-18.3-62
			c-0.4-1.3-1.6-2.8-2.9-3.4c-27.7-14.2-56.7-18.1-87.2-11.9c-7,2-14.1,3.7-20.9,6.2c-21.6,8.1-39.4,21.4-54,39.1
			c-14.9,18.1-24.3,38.9-28.1,62.1c-2.1,12.7-2.6,25.4-0.8,38.1c2,13.5,5.5,26.5,11.4,38.8c2.4,5,1.5,7.3-3.1,10.4
			c-4.2,0.5-6.3-2-7.9-5.4c-13.5-28.5-17-58.4-10.7-89.1c6.2-30.4,20.8-56.3,43.9-77.5c27.5-25.1,60-37.3,96.9-37.9
			c14-0.2,27.8,2,41.2,6.2c5.2,1.6,10.4,3.6,15.9,5.4c0.1-1,0.2-1.6,0.1-2C1347.3,735.4,1346.5,732.9,1345.7,730.4z M1249.5,996.9
			c5-22.1,14.6-31.7,31.1-31.5c7.4,0.1,13.8,2.5,19.4,7.3c8.9,7.7,11.6,17.7,10.2,29.3c3.6-0.6,6.6-1.1,9.5-1.6
			c4.4-18.7-12-41-32.5-44.3c-25.5-4.1-46.3,15.7-46.7,37.5C1243.3,994.6,1246.3,995.7,1249.5,996.9z M1371,936.4
			c-17.9-5.2-27.1-15.6-27-30.5c0.1-6.4,1.9-12.3,5.7-17.6c5.4-7.5,13-11.5,22.2-12.7c0-3.3,0-6.3,0-9.2
			c-20.1-0.3-37.8,18.8-37.6,40c0.3,23,19.7,39.1,36.7,39C1371,942.4,1371,939.4,1371,936.4z M1334.3,977.1c0,5.7,2,10.5,6.4,14
			c1,0.8,3.4,1.2,4.4,0.6c7.7-4.2,15.2-8.8,22.8-13.2c2.8-1.6,3-3.6,2.2-6.4c-2.5-8.6-11.3-14.2-20.5-12.9
			C1341.2,960.5,1334.4,968.4,1334.3,977.1z M1306.3,950.4c7.6-7.2,14.5-13.8,21.7-20.5c-0.7-1.6-2-3.9-2.5-6.3
			c-1-4.9-4.5-7-8.8-8.2c-6-1.8-11.6-0.5-16.5,3.4c-5.8,4.6-7.8,10.8-6.5,17.8C1295.1,944,1300.2,948.4,1306.3,950.4z M1263,1001.1
			c8.7,0.8,17.5,1.7,26.2,2.2c8.7,0.6,9.9-0.8,9.3-9.6c-0.1-1-0.3-2.1-0.6-3.1c-2.8-9.5-12.3-15.2-21.8-12.9
			C1266.1,980.1,1260.7,989.3,1263,1001.1z M1282.9,943.3c-7.1-23.1,12.3-46.9,39.3-39.4c0.4-3.1,0.8-6.2,1.1-9.4
			c-15.6-4.2-29.1-0.7-40,10.3c-10.7,10.8-14,24-10.1,39.1C1276.4,943.8,1279.5,943.6,1282.9,943.3z M1371.5,888.2
			c-8.5,0.7-15.5,8.6-15.5,17.7c0,8.9,6.7,16.8,15.5,17.7C1371.5,911.8,1371.5,900,1371.5,888.2z M1402.8,805.6
			c0.7,5.3,0.7,10.8,2.2,15.9c5,16.7,10.6,33.2,16,49.7c0.2,0.6,0.7,1.1,1.3,2C1422.9,850.3,1413.4,816,1402.8,805.6z M1343.5,948.2
			c-2.3-2.2-4.3-4.1-6.5-5.8c-0.7-0.6-2.3-0.8-3-0.4c-6.7,3.4-12,8.4-15.7,14.9c-0.4,0.8-0.6,2.2-0.2,2.8c1.8,2.4,3.8,4.6,5.8,6.9
			C1330.5,955.3,1333.1,952.8,1343.5,948.2z M1394.3,989.4c0-2.2,0.1-4.1,0-5.9c-0.4-7.4-2-8.6-9.3-7.3c-0.9,0.2-2.2,1.3-2.3,2
			c-0.2,3.6-0.1,7.3-0.1,11.2C1386.6,989.4,1390.1,989.4,1394.3,989.4z M1433.1,983.5c3.1-0.9,5.8-1.5,8.1-2.6
			c1-0.5,2.1-2.7,1.8-3.3c-1.6-3.1-0.3-7.6-4.4-9.5c-0.1,0-0.3,0-0.4,0.1c-2.4,0.7-4.9,1.4-7.2,2.3c-0.6,0.3-1.3,1.7-1.2,2.4
			C1430.7,976.3,1431.9,979.6,1433.1,983.5z"/>
		<path class="st2" d="M1264.1,743.4c30.5-6.2,59.5-2.3,87.2,11.9c1.2,0.6,2.5,2.1,2.9,3.4c6.2,20.6,12.2,41.3,18.3,62
			c0.4,1.2,0.4,2.6,0.4,3.9c0,8.4-0.2,16.8-0.1,25.2c0.1,3.1-1,4.2-4,4.5c-16,1.5-28.2,9.5-37.5,22.4c-1.5,2-2.6,4.3-3.9,6.3
			c-36.2-11.5-76.1,19.5-66.1,64c-2,0.9-4,1.7-6,2.6c-6.2-7.5-12.7-14.8-18.4-22.6c-3.4-4.6-5.5-10.1-8.2-15.2
			c3.5-0.7,7.1-1,10.5-2.1c24.3-7.4,40.6-37.9,33.1-63.6c-3.4-11.8-8.4-23.2-13.6-34.4c-4.6-10-12.4-17.2-23.6-20.1
			c-2.4-0.6-4.9-0.8-7.3-1.2c8.2-16.1,18.5-30.5,32.2-42.4C1261.7,746.9,1262.8,745,1264.1,743.4z M1273.2,753.5
			c-6.2,0.7-8.3,2.1-14.8,10c-4.7,5.7-4.4,12.8,0.8,18c3.4,3.4,7.1,6.5,10.6,9.7c8.3,7.7,14.9,7.5,22.6-0.8c1.2-1.3,2.3-2.6,3.3-4
			c4.1-5.8,3.6-12.3-1.5-17.3c-4.1-4-8.2-8-12.7-11.5C1279.2,755.7,1276,754.8,1273.2,753.5z M1317.5,850.5
			c8.8,0.2,21.4-12,21.6-20.1c0.2-7.8-13.1-21-20.9-20.7c-7.1,0.3-19.4,12-19.9,19.1c-0.6,8.2,11.2,21.4,19.4,21.7
			C1317.9,850.5,1318.1,850.5,1317.5,850.5z M1328.3,776.8c-2.2,0.1-3.4,0.1-4.6,0.3c-3.4,0.5-5.8,2.5-5.8,6c0,3.4,2,5.8,5.7,5.9
			c3,0.1,6.2,0.4,9-0.5c1.7-0.5,3.8-3,3.9-4.7c0.1-1.9-1.5-4.4-3.1-5.7C1332,776.9,1329.4,777.1,1328.3,776.8z"/>
		<path class="st3" d="M1264.1,743.4c-1.3,1.6-2.4,3.5-4,4.8c-13.7,11.8-24,26.3-32.2,42.4c-13.5,0.3-23.9,6.4-30.4,18
			c-4.9,8.7-8.7,17.9-12.5,27.1c-5.1,12.3-6.2,25-2.7,38.2c6.1,22.5,24.8,38.1,46.4,38.1c2.7,5.1,4.8,10.6,8.2,15.2
			c5.7,7.8,12.2,15.1,18.4,22.6c-9.5,6-17.5,13.4-22,23.9c-1.9,4.5-3.3,9.2-5,14c-10-5.4-19.2-12-27.5-20c-2.2-2.1-4.3-4.3-6.5-6.5
			c-4.4-4.4-6-4.5-11-1.1c-4.9-7.3-9.8-14.6-14.6-21.9c4.6-3.1,5.5-5.4,3.1-10.4c-6-12.3-9.5-25.4-11.4-38.8
			c-1.8-12.7-1.3-25.5,0.8-38.1c3.8-23.2,13.2-44,28.1-62.1c14.6-17.7,32.4-31.1,54-39.1C1249.9,747,1257.1,745.4,1264.1,743.4z
			 M1209.1,944c5.2-0.1,8.1-4.7,5.8-8.4c-2-3.2-4.5-6.2-7.3-8.8c-2.2-2-5.2-2.2-7.6-0.1c-2.6,2.2-3.2,5-1.1,7.7
			c2.3,2.9,4.8,5.6,7.4,8.2C1207.1,943.6,1208.6,943.8,1209.1,944z"/>
		<path class="st4" d="M1370.4,1001.6c1.4,6.9-1.7,10.5-8,13.5c-29,13.8-59.3,19.5-91.2,15.4c-36.1-4.6-67.5-19.6-92.9-45.4
			c-35.4-35.9-51.5-79.5-46.2-129.8c5.1-49,28.9-87.9,69.4-115.7c32.7-22.4,69.3-31.4,108.9-26.2c9.5,1.2,18.7,3.9,28.1,5.8
			c3.5,0.7,5.7,2.4,6.1,6.1c0.2,1.7,0.8,3.3,1.2,5c-1.4-0.4-2.8-0.7-4.2-1.2c-26.6-9.5-53.9-11.3-81.5-5.6
			c-32.2,6.7-59.6,22.4-81.7,47c-22,24.5-34.7,53.2-38.2,85.7c-2.5,23.3,0.4,46.2,8.7,68.3c9.6,25.8,25.1,47.5,46.5,64.8
			c21.6,17.6,46.3,28.5,74.1,32.3c29.3,4,57.3,0.2,84.2-12C1359.3,1007.3,1364.8,1004.4,1370.4,1001.6z"/>
		<path class="st5" d="M1370.4,1001.6c-5.6,2.8-11.1,5.7-16.7,8.2c-26.9,12.2-55,16-84.2,12c-27.8-3.8-52.4-14.8-74.1-32.3
			c-21.3-17.3-36.8-39-46.5-64.8c-8.2-22.1-11.2-45-8.7-68.3c3.5-32.6,16.2-61.3,38.2-85.7c22.1-24.6,49.5-40.3,81.7-47
			c27.5-5.7,54.8-3.9,81.5,5.6c1.4,0.5,2.8,0.8,4.2,1.2c0.8,2.5,1.6,5,2.3,7.5c0.1,0.5,0,1-0.1,2c-5.5-1.9-10.6-3.8-15.9-5.4
			c-13.4-4.2-27.3-6.4-41.2-6.2c-36.9,0.7-69.4,12.8-96.9,37.9c-23.1,21.1-37.8,47-43.9,77.5c-6.2,30.7-2.7,60.6,10.7,89.1
			c1.6,3.4,3.7,5.9,7.9,5.4c4.9,7.3,9.8,14.6,14.6,21.9c-1.7,3.6-0.6,6.3,2.1,9.2c12.5,13.8,27.4,24.4,44,32.5
			c13.9,6.7,28.7,11.1,44.2,12.8c24.2,2.7,47.7,0.1,70.3-9.1c8.9-3.7,17.4-8.5,26.5-12.9C1370.4,995.4,1370.4,998.5,1370.4,1001.6z"
			/>
		<path class="st6" d="M1403.4,771c-0.2-4-0.5-7.9-0.8-12.2c35.6,31.1,64,100.2,37.3,170.4c-1.5-5.3-2.8-9.7-4-14.1
			c4.2-12,5.9-24.6,6.4-37.2c1.2-27.6-4.9-53.7-18-78C1418.6,789.5,1412.1,779.4,1403.4,771z"/>
		<path class="st5" d="M1403.4,771c8.8,8.4,15.2,18.5,20.9,29c13.1,24.3,19.1,50.4,18,78c-0.5,12.6-2.2,25.2-6.4,37.2
			c-4.3-7.9-4.7-16.2-3-24.9c2.4-12.1,1.7-24.3,0.2-36.5c-2.4-20.2-9.1-38.7-19.5-56.1c-1.8-3-3.5-6.1-5.8-8.6
			C1402.9,783.8,1402.5,777.6,1403.4,771z"/>
		<path class="st7" d="M1249.5,996.9c-3.2-1.2-6.1-2.3-9-3.4c0.4-21.7,21.2-41.6,46.7-37.5c20.5,3.3,36.9,25.6,32.5,44.3
			c-2.9,0.5-5.9,1-9.5,1.6c1.4-11.6-1.3-21.7-10.2-29.3c-5.6-4.8-12-7.2-19.4-7.3C1264.1,965.2,1254.4,974.9,1249.5,996.9z"/>
		<path class="st8" d="M1387.1,693.6c0-7,0-13.9,0-20.9c0.5-0.1,1.1-0.1,1.6-0.2c0.3,1.4,0.8,2.8,0.8,4.1
			c0.3,18.9,0.6,37.8,0.8,56.7c0.3,27,0.6,54.1,1,81.1c0.2,16.5,0.5,33,0.7,49.5c0.3,20.5,0.6,41,0.8,61.5c0.1,12.6,0,25.3,0,38.5
			c-1.4,0-3.2,0-5,0c0-88.9,0-177.9,0-266.8C1388,696.1,1387.4,694.8,1387.1,693.6z"/>
		<path class="st9" d="M1371,936.4c0,3,0,6,0,9c-17,0.1-36.4-16.1-36.7-39c-0.2-21.2,17.5-40.2,37.6-40c0,3,0,6,0,9.2
			c-9.2,1.2-16.7,5.2-22.2,12.7c-3.8,5.2-5.6,11.1-5.7,17.6C1343.9,920.8,1353.1,931.2,1371,936.4z"/>
		<path class="st10" d="M1387.1,693.6c0.3,1.2,0.8,2.5,0.8,3.7c0,88.9,0,177.9,0,266.8c-1.4,0-2.9,0-4.9,0c0-1.6,0-2.9,0-4.2
			c0.1-12.7,0.1-25.3,0.2-38c0.2-19,0.5-38.1,0.8-57.1c0.3-18.4,0.5-36.7,0.8-55.1c0.3-18.9,0.5-37.8,0.8-56.7
			c0.3-18.5,0.5-37,0.8-55.5C1386.6,696.1,1386.9,694.9,1387.1,693.6z"/>
		<path class="st11" d="M1334.3,977.1c0.1-8.7,6.9-16.6,15.4-17.8c9.2-1.3,18,4.3,20.5,12.9c0.8,2.7,0.5,4.8-2.2,6.4
			c-7.6,4.3-15.1,8.9-22.8,13.2c-1.1,0.6-3.4,0.2-4.4-0.6C1336.3,987.6,1334.3,982.8,1334.3,977.1z"/>
		<path class="st11" d="M1306.3,950.4c-6.1-2-11.2-6.4-12.6-13.9c-1.3-7,0.7-13.2,6.5-17.8c4.9-3.9,10.5-5.1,16.5-3.4
			c4.2,1.2,7.7,3.3,8.8,8.2c0.5,2.4,1.8,4.7,2.5,6.3C1320.8,936.7,1313.9,943.3,1306.3,950.4z"/>
		<path class="st11" d="M1263,1001.1c-2.3-11.8,3.2-21,13.1-23.4c9.5-2.2,19,3.4,21.8,12.9c0.3,1,0.5,2.1,0.6,3.1
			c0.7,8.7-0.6,10.1-9.3,9.6C1280.5,1002.8,1271.7,1001.9,1263,1001.1z"/>
		<path class="st7" d="M1282.9,943.3c-3.4,0.2-6.4,0.5-9.7,0.7c-3.9-15.1-0.6-28.4,10.1-39.1c10.9-11,24.4-14.5,40-10.3
			c-0.4,3.2-0.8,6.3-1.1,9.4C1295.1,896.4,1275.8,920.3,1282.9,943.3z"/>
		<path class="st12" d="M1433.6,956.8c-2.4,0.8-4.7,1.7-7.6,2.7c-2.1-7.1-4.2-13.9-6.2-20.7c-4.7-15.8-9.8-31.4-13.8-47.4
			c-1.7-6.7-0.9-14-1.3-21c0.7,1,1.8,1.8,2.2,2.9c2.9,9.1,5.7,18.2,8.6,27.4C1421.5,919.4,1427.6,938.1,1433.6,956.8z"/>
		<path class="st12" d="M1462.3,1042.4c-1.7,1.5-3.2,4.1-5,4.2c-1.9,0.1-4.2-1.8-5.9-3.3c-1.1-1-1.5-2.8-2-4.3
			c-4-13.5-7.9-27-12-40.4c-0.9-3.1,0-4.1,2.7-4.7c1.8-0.4,3.6-0.9,5.4-1.4c0.1,0.5,0,1.1,0.2,1.6c4.9,15.3,9.8,30.6,14.8,45.9
			C1460.8,1040.9,1461.7,1041.6,1462.3,1042.4z"/>
		<path class="st7" d="M1371.5,888.2c0,11.8,0,23.6,0,35.4c-8.8-0.9-15.5-8.8-15.5-17.7C1356.1,896.8,1363,888.9,1371.5,888.2z"/>
		<path class="st13" d="M1402.8,805.6c10.6,10.4,20.1,44.7,19.5,67.6c-0.6-0.9-1.1-1.4-1.3-2c-5.4-16.6-11-33-16-49.7
			C1403.5,816.5,1403.5,810.9,1402.8,805.6z"/>
		<path class="st14" d="M1388,1001.8c2,0,3.9,0,6.4,0c0,2.2,0,4.2,0,6.2c0.2,12.9,0.5,25.8,0.7,38.7c0.1,6.6-2.1,9.7-7,10.8
			C1388,1038.9,1388,1020.3,1388,1001.8z"/>
		<path class="st15" d="M1388,1001.8c0,18.5,0,37.1,0,55.6c-4.9-1-6.2-4.9-6.3-9c-0.2-15.4-0.1-30.8-0.1-46.6
			C1384.5,1001.8,1386.2,1001.8,1388,1001.8z"/>
		<path class="st7" d="M1343.5,948.2c-10.4,4.6-13,7.1-19.6,18.4c-2-2.3-4-4.5-5.8-6.9c-0.4-0.6-0.2-2,0.2-2.8
			c3.7-6.5,9-11.5,15.7-14.9c0.8-0.4,2.3-0.2,3,0.4C1339.2,944.1,1341.2,946,1343.5,948.2z"/>
		<path class="st8" d="M1433.6,956.8c-6-18.7-12.1-37.4-18-56.1c-2.9-9.1-5.7-18.3-8.6-27.4c-0.4-1.1-1.4-1.9-2.2-2.9
			c-0.2-2.7-0.3-5.3-0.5-8c0.4,0,0.8,0,1.2,0c7.2,22.1,14.5,44.1,21.7,66.2c2.7,8.2,5.3,16.4,8,24.6
			C1435.8,954.9,1436.6,956.7,1433.6,956.8z"/>
		<path class="st10" d="M1373.6,768c0,3.7,0,7.5,0,11.2c-0.2,0.1-0.4,0.1-0.6,0.2c-2-6.8-4.1-13.5-6.1-20.3
			c-7.3-24.6-14.5-49.2-21.7-73.9c-0.1-0.4-0.1-0.8-0.1-1.2c0.7,1.1,1.8,2.2,2.2,3.4c1.8,5.4,3.4,10.8,5.2,16.2
			c6.3,19.6,12.7,39.3,19.1,58.9C1372,764.4,1372.8,766.2,1373.6,768z"/>
		<path class="st5" d="M1394.3,989.4c-4.2,0-7.7,0-11.7,0c0-3.8-0.1-7.5,0.1-11.2c0-0.7,1.4-1.9,2.3-2c7.4-1.3,8.9-0.1,9.3,7.3
			C1394.4,985.4,1394.3,987.2,1394.3,989.4z"/>
		<path class="st10" d="M1433.1,983.5c-1.2-3.9-2.3-7.2-3.2-10.7c-0.2-0.7,0.5-2.1,1.2-2.4c2.3-1,4.8-1.6,7.2-2.3
			c0.1,0,0.3-0.1,0.4-0.1c4.1,1.9,2.8,6.4,4.4,9.5c0.3,0.7-0.8,2.9-1.8,3.3C1438.8,982,1436.2,982.6,1433.1,983.5z"/>
		<path class="st16" d="M1373.6,768c-0.7-1.8-1.6-3.6-2.2-5.4c-6.4-19.6-12.8-39.3-19.1-58.9c-1.7-5.4-3.3-10.9-5.2-16.2
			c-0.4-1.2-1.4-2.3-2.2-3.4c-0.1-1.2-0.2-2.4-0.3-3.6c0.1-0.4,0.1-0.8,0.2-1.2c0.8,1.3,1.9,2.5,2.4,3.9
			c8.6,26.2,17.2,52.4,25.7,78.7C1373.5,763.7,1373.3,765.9,1373.6,768z"/>
		<path class="st8" d="M1462.3,1042.4c-0.6-0.8-1.5-1.4-1.8-2.3c-5-15.3-9.9-30.6-14.8-45.9c-0.2-0.5-0.1-1.1-0.2-1.6
			c1.9-1.5,2.6,0,3.1,1.4c4.5,13.9,9.1,27.7,13.5,41.6C1462.7,1037.7,1462.2,1040.1,1462.3,1042.4z"/>
		<path class="st17" d="M1413.7,961.3c0.1,0.1,0.2,0.2,0.2,0.3c3.3,9.9,2.7,11.6-8.1,20.7c0-4.2,0-8,0-11.7
			C1408.5,967.5,1411.1,964.4,1413.7,961.3z"/>
		<path class="st5" d="M1413.7,961.3c-2.6,3.1-5.2,6.2-7.8,9.3c-0.1-3.6-0.8-7.2-0.1-10.6c0.6-3,2.7-5.7,4.2-8.5
			c0.3,0.1,0.7,0.1,1,0.2C1411.9,954.9,1412.8,958.1,1413.7,961.3z"/>
		<path class="st12" d="M1405.5,862.4c-0.4,0-0.8,0-1.2,0c-0.1-0.8-0.1-1.7-0.2-2.5c0.2,0,0.4-0.1,0.5-0.1
			C1404.9,860.7,1405.2,861.5,1405.5,862.4z"/>
		<path class="st10" d="M1344.8,679.2c-0.1,0.4-0.1,0.8-0.2,1.2C1344.7,680,1344.7,679.6,1344.8,679.2z"/>
		<path class="st1" d="M1228.7,911.9c-21.6,0.1-40.3-15.5-46.4-38.1c-3.5-13.1-2.5-25.8,2.7-38.2c3.8-9.2,7.6-18.5,12.5-27.1
			c6.5-11.6,16.9-17.7,30.4-18c2.5,0.4,5,0.6,7.3,1.2c11.1,2.8,18.9,10,23.6,20.1c5.2,11.2,10.2,22.6,13.6,34.4
			c7.4,25.7-8.8,56.2-33.1,63.6C1235.9,910.8,1232.3,911.2,1228.7,911.9z M1235.3,804.7c-0.4-0.3-0.9-0.6-1.3-0.8
			c-10-3.5-20.9,0.7-26.5,11.4c-4.8,9.3-9,18.9-12.5,28.8c-5.3,15-2.7,29.2,6.8,41.8c7.7,10.2,17.8,15.8,31.2,13
			c0.4,0,0.8,0,1.2-0.1c20-5.1,31.1-29.3,27-48.6c-2.6-12.4-8.2-23.8-14.1-34.9C1244.5,810.4,1240.8,806.5,1235.3,804.7z"/>
		<path class="st18" d="M1273.2,753.5c2.8,1.3,5.9,2.2,8.3,4.1c4.5,3.5,8.6,7.5,12.7,11.5c5.1,5,5.6,11.5,1.5,17.3
			c-1,1.4-2.2,2.7-3.3,4c-7.7,8.3-14.3,8.5-22.6,0.8c-3.5-3.2-7.2-6.3-10.6-9.7c-5.3-5.2-5.5-12.3-0.8-18
			C1264.9,755.6,1267.1,754.2,1273.2,753.5z M1267,772.4c4.2,3.8,8.1,7.4,12.2,10.9c0.7,0.6,2.4,0.7,3.1,0.2
			c4.6-2.8,4.8-5.1,0.8-8.7c-1.6-1.4-3.2-2.8-4.8-4.2C1272.3,765.3,1273.4,763.9,1267,772.4z"/>
		<path class="st19" d="M1317.5,850.5c0.6,0,0.4,0,0.3,0c-8.2-0.3-20.1-13.6-19.4-21.7c0.6-7.1,12.8-18.8,19.9-19.1
			c7.8-0.3,21,12.9,20.9,20.7C1338.9,838.5,1326.3,850.6,1317.5,850.5z M1326.8,830.3c-2.7-2.9-5.3-5.7-7.7-8.3
			c-3.1,2.9-5.9,5.5-8.7,8c2.8,3,5.4,5.7,8.2,8.6C1321.4,835.8,1324.1,833.1,1326.8,830.3z"/>
		<path class="st1" d="M1328.3,776.8c1.1,0.2,3.6,0.1,5.1,1.2c1.6,1.3,3.2,3.8,3.1,5.7c-0.1,1.7-2.2,4.2-3.9,4.7
			c-2.8,0.9-6,0.6-9,0.5c-3.6-0.1-5.7-2.5-5.7-5.9c0-3.5,2.4-5.4,5.8-6C1324.9,777,1326.1,777,1328.3,776.8z"/>
		<path class="st18" d="M1209.1,944c-0.5-0.2-2-0.4-2.8-1.3c-2.6-2.6-5.1-5.3-7.4-8.2c-2.1-2.8-1.5-5.6,1.1-7.7
			c2.5-2.1,5.4-2,7.6,0.1c2.8,2.6,5.3,5.6,7.3,8.8C1217.2,939.4,1214.3,943.9,1209.1,944z"/>
		<path class="st20" d="M1232.9,898.9c-13.3,2.7-23.5-2.8-31.2-13c-9.5-12.6-12.1-26.9-6.8-41.8c3.5-9.8,7.7-19.5,12.5-28.8
			c5.6-10.7,16.5-14.9,26.5-11.4c0.5,0.2,0.9,0.5,1.3,0.8c-3.9,7-8,13.9-11.7,21c-1.6,3.1-2.4,6.6-3.5,9.9
			c-12.7,4.3-20.8,15.4-19.7,27.2c1.4,14.1,10.5,23.8,24.1,25.4c0.6,1.1,1.1,2.4,1.9,3.4C1228.5,894.1,1230.7,896.5,1232.9,898.9z"
			/>
		<path class="st21" d="M1232.9,898.9c-2.2-2.4-4.4-4.8-6.5-7.3c-0.8-1-1.3-2.2-1.9-3.4c20.5,1.2,34.6-17.1,27.8-36.1
			c-3.9-10.9-16.2-20.4-32.2-16.5c1.2-3.3,1.9-6.8,3.5-9.9c3.7-7.1,7.7-14,11.7-21c5.5,1.8,9.2,5.8,11.8,10.7
			c5.8,11.2,11.4,22.5,14.1,34.9c4.1,19.3-7.1,43.5-27,48.6C1233.7,898.9,1233.3,898.9,1232.9,898.9z"/>
		<path class="st22" d="M1267,772.4c6.5-8.4,5.3-7.1,11.4-1.7c1.6,1.4,3.2,2.8,4.8,4.2c4,3.5,3.8,5.9-0.8,8.7
			c-0.8,0.4-2.4,0.3-3.1-0.2C1275.1,779.8,1271.1,776.1,1267,772.4z"/>
		<path class="st23" d="M1326.8,830.3c-2.7,2.8-5.4,5.5-8.2,8.4c-2.8-2.9-5.4-5.6-8.2-8.6c2.7-2.5,5.6-5.2,8.7-8
			C1321.5,824.6,1324,827.4,1326.8,830.3z"/>
		<path class="st24" d="M1220.1,835.6c16-3.9,28.3,5.7,32.2,16.5c6.8,18.9-7.4,37.2-27.8,36.1c-13.5-1.6-22.7-11.4-24.1-25.4
			C1199.3,851.1,1207.4,839.9,1220.1,835.6z M1232.3,847.8c-2.2-0.3-4.4-1.2-6.5-0.9c-9.1,1-14.6,8.7-13,17.5
			c1.6,8.5,9.5,13.3,18.7,11.3c6.6-2.2,10.5-7.3,10.7-13.8C1242.2,855.5,1238.4,850.1,1232.3,847.8z"/>
		<path class="st25" d="M1231.4,875.6c-9.2,2-17.1-2.7-18.7-11.3c-1.6-8.8,4-16.5,13-17.5c2.1-0.2,4.3,0.6,6.5,0.9
			c-1.4,1.7-3.4,3.2-4.2,5.1C1224.7,861.1,1225.8,868.7,1231.4,875.6z"/>
		<path class="st26" d="M1231.4,875.6c-5.6-6.9-6.7-14.6-3.3-22.7c0.8-1.9,2.8-3.4,4.2-5.1c6.2,2.3,9.9,7.7,9.8,14
			C1241.9,868.3,1238,873.4,1231.4,875.6z"/>
	</g>
</g>
</svg>
